HIERARCHY
ROOT Hips
{
	OFFSET 0.00000 0.00000 0.00000
	CHANNELS 6 Xposition Yposition Zposition Zrotation Yrotation Xrotation 
	JOINT LHipJoint
	{
		OFFSET 0 0 0
		CHANNELS 3 Zrotation Yrotation Xrotation
		JOINT LeftUpLeg
		{
			OFFSET 1.32989 -1.57253 0.78074
			CHANNELS 3 Zrotation Yrotation Xrotation
			JOINT LeftLeg
			{
				OFFSET 2.24323 -6.16323 0.00000
				CHANNELS 3 Zrotation Yrotation Xrotation
				JOINT LeftFoot
				{
					OFFSET 2.32677 -6.39275 0.00000
					CHANNELS 3 Zrotation Yrotation Xrotation
					JOINT LeftToeBase
					{
						OFFSET 0.18686 -0.51340 1.95973
						CHANNELS 3 Zrotation Yrotation Xrotation
						End Site
						{
							OFFSET 0.00000 -0.00000 1.02033
						}
					}
				}
			}
		}
	}
	JOINT RHipJoint
	{
		OFFSET 0 0 0
		CHANNELS 3 Zrotation Yrotation Xrotation
		JOINT RightUpLeg
		{
			OFFSET -1.27392 -1.57253 0.78074
			CHANNELS 3 Zrotation Yrotation Xrotation
			JOINT RightLeg
			{
				OFFSET -2.19978 -6.04385 0.00000
				CHANNELS 3 Zrotation Yrotation Xrotation
				JOINT RightFoot
				{
					OFFSET -2.29380 -6.30216 0.00000
					CHANNELS 3 Zrotation Yrotation Xrotation
					JOINT RightToeBase
					{
						OFFSET -0.24624 -0.67655 1.94854
						CHANNELS 3 Zrotation Yrotation Xrotation
						End Site
						{
							OFFSET -0.00000 -0.00000 1.03267
						}
					}
				}
			}
		}
	}
	JOINT LowerBack
	{
		OFFSET 0 0 0
		CHANNELS 3 Zrotation Yrotation Xrotation
		JOINT Spine
		{
			OFFSET -0.05982 2.08655 0.02100
			CHANNELS 3 Zrotation Yrotation Xrotation
			JOINT Spine1
			{
				OFFSET 0.04735 2.08455 -0.01795
				CHANNELS 3 Zrotation Yrotation Xrotation
				JOINT Neck
				{
					OFFSET 0 0 0
					CHANNELS 3 Zrotation Yrotation Xrotation
					JOINT Neck1
					{
						OFFSET -0.10038 1.43781 0.03084
						CHANNELS 3 Zrotation Yrotation Xrotation
						JOINT Head
						{
							OFFSET 0.07701 1.43632 -0.18495
							CHANNELS 3 Zrotation Yrotation Xrotation
							End Site
							{
								OFFSET 0.02744 1.45633 -0.07361
							}
						}
					}
				}
				JOINT LeftShoulder
				{
					OFFSET 0 0 0
					CHANNELS 3 Zrotation Yrotation Xrotation
					JOINT LeftArm
					{
						OFFSET 2.75061 0.74389 0.25227
						CHANNELS 3 Zrotation Yrotation Xrotation
						JOINT LeftForeArm
						{
							OFFSET 4.36901 -0.00000 0.00000
							CHANNELS 3 Zrotation Yrotation Xrotation
							JOINT LeftHand
							{
								OFFSET 3.21737 -0.00000 -0.00000
								CHANNELS 3 Zrotation Yrotation Xrotation
								JOINT LeftFingerBase
								{
									OFFSET 0 0 0
									CHANNELS 3 Zrotation Yrotation Xrotation
									JOINT LeftHandIndex1
									{
										OFFSET 0.56431 -0.00000 0.00000
										CHANNELS 3 Zrotation Yrotation Xrotation
										End Site
										{
											OFFSET 0.45496 -0.00000 0.00000
										}
									}
								}
								JOINT LThumb
								{
									OFFSET 0 0 0
									CHANNELS 3 Zrotation Yrotation Xrotation
									End Site
									{
										OFFSET 0.46191 -0.00000 0.46191
									}
								}
							}
						}
					}
				}
				JOINT RightShoulder
				{
					OFFSET 0 0 0
					CHANNELS 3 Zrotation Yrotation Xrotation
					JOINT RightArm
					{
						OFFSET -2.97379 0.79094 0.48377
						CHANNELS 3 Zrotation Yrotation Xrotation
						JOINT RightForeArm
						{
							OFFSET -4.34118 -0.00000 -0.00000
							CHANNELS 3 Zrotation Yrotation Xrotation
							JOINT RightHand
							{
								OFFSET -3.09531 -0.00000 0.00000
								CHANNELS 3 Zrotation Yrotation Xrotation
								JOINT RightFingerBase
								{
									OFFSET 0 0 0
									CHANNELS 3 Zrotation Yrotation Xrotation
									JOINT RightHandIndex1
									{
										OFFSET -0.59745 -0.00000 0.00000
										CHANNELS 3 Zrotation Yrotation Xrotation
										End Site
										{
											OFFSET -0.48168 -0.00000 0.00000
										}
									}
								}
								JOINT RThumb
								{
									OFFSET 0 0 0
									CHANNELS 3 Zrotation Yrotation Xrotation
									End Site
									{
										OFFSET -0.48903 -0.00000 0.48903
									}
								}
							}
						}
					}
				}
			}
		}
	}
}
MOTION
Frames: 15
Frame Time: 0.0526316
0.00 0.00 0.00 -57.2765 70.7483 -253.3440 0.0000 0.0000 0.0000 8.9386 11.1330 -32.8083 4.8860 13.2543 40.3279 0.0421 3.7349 -6.9018 0.4690 -4.3925 -12.1836 0.0000 0.0000 0.0000 15.3984 -13.3688 18.6583 -5.1435 -13.5436 41.4390 -0.7989 -12.2097 16.9338 -0.0123 0.7150 -1.9649 -3.2110 0.6785 0.0244 -2.5836 0.5056 -10.3575 -1.0467 0.4614 -11.0726 -3.8540 -3.0802 -13.2842 5.6682 -3.4389 -8.3627 2.3352 -1.5539 -0.2336 0.0000 0.0000 0.0000 72.6968 -39.9036 -100.0498 15.0336 -24.1929 -3.2397 -0.0000 0.0000 -42.4165 101.8021 -47.2647 -105.8800 -7.1250 0.0000 -0.0000 164.0890 -49.6591 -178.1301 0.0000 0.0000 0.0000 4.2541 9.2714 -20.9459 -61.7826 56.7665 -35.8283 0.0000 -0.0000 -16.8381 -66.5410 34.7849 -52.7407 7.1250 -0.0000 -0.0000 -17.1165 28.1957 -23.8588
0.00 0.00 0.00 -65.7048 66.2449 -267.6320 0.0000 0.0000 0.0000 18.0216 19.9577 -53.6696 8.3086 16.3416 53.6666 0.1468 12.6850 -19.7819 4.6789 -13.0128 -39.4165 0.0000 0.0000 0.0000 11.7200 -10.9943 20.5686 -6.0438 -14.4706 45.1572 -1.4665 -14.7154 22.5526 -0.0169 0.8404 -2.3098 -5.8364 0.6511 4.7413 -4.7386 -0.2644 -8.7532 -1.8671 0.1731 -12.1722 -3.6868 -3.3171 -12.9194 7.9977 -3.7204 -8.8304 3.0902 -1.7050 -0.3739 -0.0000 -0.0000 0.0000 78.4653 -39.3374 -105.9453 13.7482 -22.3736 -2.7315 -0.0000 0.0000 -34.4272 102.6575 -47.2823 -106.9971 -7.1250 0.0000 -0.0000 164.5139 -48.9417 -178.4609 -0.0000 -0.0000 0.0000 16.2864 6.9420 -22.2472 -69.5641 58.3616 -42.3993 0.0000 -0.0000 -15.2872 -62.6880 34.0009 -47.2789 7.1250 -0.0000 -0.0000 -15.4756 24.1929 -21.0063
0.00 0.00 0.00 -68.7087 59.7861 -275.9760 0.0000 0.0000 0.0000 22.3161 25.3075 -76.7749 13.7798 19.0459 71.5307 4.3394 4.7841 -41.2230 2.5316 -9.8952 -28.6380 0.0000 0.0000 0.0000 8.9088 -4.7307 20.1823 -6.9692 -15.3059 48.7578 -1.6363 -18.7407 24.7297 -0.0177 0.8578 -2.3576 -9.4790 0.6323 9.3142 -5.5046 -1.2182 -6.6662 -0.5166 -0.0429 -12.5954 -5.5532 -3.3224 -13.6095 9.4769 -3.2869 -10.5817 4.0055 -1.3982 -0.7953 0.0000 0.0000 0.0000 72.5683 -35.6645 -97.2133 15.9036 -25.3898 -3.6045 -0.0000 0.0000 -37.6676 107.3506 -46.3088 -113.3688 -7.1250 0.0000 -0.0000 165.9247 -44.6131 179.8628 0.0000 0.0000 0.0000 21.9438 5.2779 -23.3100 -72.5649 58.8197 -44.9606 0.0000 -0.0000 -9.0701 -59.3316 32.7747 -42.3917 7.1250 -0.0000 -0.0000 -14.2501 20.3222 -18.7644
0.00 0.00 0.00 -63.0483 47.4991 -287.6780 0.0000 0.0000 0.0000 29.3581 21.2621 -97.2950 14.5573 19.2744 73.8995 6.4998 -10.3729 -47.1160 0.2311 -3.0939 -8.5403 0.0000 0.0000 0.0000 17.7496 3.0965 18.9667 -4.2664 -12.5067 37.5489 0.8763 -23.1246 9.1113 -0.6198 5.0384 -14.0180 -12.3209 2.5972 17.9608 -7.2284 -0.2158 -1.7375 -1.0983 0.3950 -12.2109 -2.7897 -4.3934 -17.3863 10.6658 -5.1021 -10.7521 3.7483 -2.3487 -0.1307 0.0000 0.0000 0.0000 62.9491 -34.0848 -89.9531 18.5987 -28.9170 -4.8353 -0.0000 0.0000 -41.9513 111.9622 -44.4111 -119.9526 -7.1250 0.0000 -0.0000 166.7682 -39.7801 178.2624 0.0000 0.0000 0.0000 41.6825 -9.7612 -30.4177 -56.6218 55.3404 -31.5459 0.0000 -0.0000 -11.2024 -54.6050 29.4922 -34.7169 7.1250 -0.0000 -0.0000 -12.9604 13.3600 -15.9644
0.00 0.00 0.00 -57.4242 41.9248 -296.8310 0.0000 0.0000 0.0000 29.2720 16.1297 -96.2436 11.9516 18.3701 65.8354 4.1311 -5.2953 -37.4714 0.5452 4.7305 13.1415 0.0000 0.0000 0.0000 24.9774 -8.8017 12.2955 -0.7523 -5.5399 15.4552 1.4449 -21.2788 -2.7167 -0.0594 1.5725 -4.3255 -8.9184 2.8841 23.5303 -9.3490 -0.0073 0.3697 -5.6516 0.1299 -12.9427 10.7118 -4.8322 -23.1090 10.4076 -9.3280 -8.7759 0.8993 -4.7669 0.9595 0.0000 -0.0000 0.0000 65.1204 -37.1959 -100.5507 12.1942 -20.0952 -2.1685 -0.0000 0.0000 -32.6425 104.7372 -46.5476 -109.9175 -7.1250 0.0000 -0.0000 164.8754 -46.9177 -179.2680 0.0000 -0.0000 0.0000 65.4734 -15.2725 -39.1168 -46.4160 51.4436 -23.3409 0.0000 -0.0000 -11.4390 -50.9421 25.6127 -28.0454 7.1250 -0.0000 -0.0000 -12.1832 6.5426 -13.7913
0.00 0.00 0.00 -47.0259 28.9627 -307.6830 0.0000 0.0000 0.0000 18.6754 12.6499 -91.6336 14.2407 19.1854 72.9384 3.9702 6.5388 -40.2622 0.5640 -4.8102 -13.3680 0.0000 0.0000 0.0000 29.3823 -6.3221 -12.3683 -1.0474 -6.5083 18.2666 -0.2875 -4.6597 -12.9290 -2.9831 10.6676 -31.1668 -19.1986 -0.0639 28.3884 1.6432 -5.7692 2.1721 14.0160 -1.7995 -10.4183 -8.4364 -5.6932 -19.6560 19.6795 -6.0049 -8.6171 7.1078 -2.4121 1.6316 0.0000 -0.0000 0.0000 17.0131 -20.6149 -74.4406 11.3844 -18.8751 -1.8984 -0.0000 0.0000 -35.1511 54.1660 57.3134 49.3703 -7.1250 0.0000 -0.0000 -177.4896 -80.6026 177.9330 0.0000 -0.0000 0.0000 55.4734 -5.3499 -32.0770 -42.2641 49.3555 -20.1407 0.0000 -0.0000 -10.7485 -52.5677 25.4456 -29.3058 7.1250 -0.0000 -0.0000 -13.1148 7.1993 -15.0309
0.00 0.00 0.00 -29.8036 15.8777 -317.0730 0.0000 0.0000 0.0000 2.7477 15.0740 -80.2220 13.5287 18.9648 70.7599 1.9924 4.0745 -28.3721 2.5915 -10.0024 -28.9846 0.0000 0.0000 0.0000 18.0668 13.9863 -44.5284 -2.4948 -9.8284 28.4230 -1.6991 3.9343 -23.6988 -2.9084 10.5452 -30.7609 -16.5671 -3.5111 23.8243 4.9121 -8.3307 2.5321 16.6679 -3.5999 -6.9808 -21.4812 -5.4384 -12.2838 26.5158 -4.4661 -7.1586 12.1142 -1.6258 1.3967 -0.0000 0.0000 0.0000 -46.7179 -4.5302 -30.7726 41.1492 -48.7362 -19.2987 -0.0000 0.0000 -48.4026 56.0519 50.2699 48.8031 -7.1250 0.0000 -0.0000 142.6784 -83.8524 -146.5681 -0.0000 0.0000 0.0000 55.1228 -3.3496 -15.6092 -50.9145 53.3577 -26.9062 0.0000 -0.0000 -8.3417 -55.1567 27.8628 -33.8756 7.1250 -0.0000 -0.0000 -13.7688 11.7265 -16.7161
0.00 0.00 0.00 -13.3845 19.5580 -328.8500 0.0000 0.0000 0.0000 8.0059 8.3567 -43.2510 5.4007 13.8213 42.5263 0.8673 5.7036 -20.5561 3.4875 -11.4453 -33.7969 0.0000 0.0000 0.0000 13.2794 12.3052 -46.8222 -3.1139 -10.8772 31.8668 -0.5261 -4.4104 -16.0256 -3.5829 11.5837 -34.2746 -13.4479 -5.3862 18.1120 4.6183 -9.4105 1.2485 14.7817 -4.2610 -5.7012 -23.9734 -6.5000 -4.2080 23.6808 -8.1289 -0.7145 11.2534 -3.8583 2.6106 -0.0000 0.0000 0.0000 -67.4973 -0.3518 -8.5952 79.2927 -59.5623 -50.7408 -0.0000 0.0000 -35.8125 48.2567 42.5562 37.1593 -7.1250 0.0000 -0.0000 38.2671 82.5248 33.3930 -0.0000 0.0000 0.0000 53.2007 4.2202 1.9666 -62.2225 56.8737 -36.1964 0.0000 -0.0000 -1.3976 -57.6156 32.3136 -40.1252 7.1250 -0.0000 -0.0000 -13.5481 18.6029 -17.5577
0.00 0.00 0.00 -5.1989 20.7626 -339.8160 0.0000 0.0000 0.0000 8.8079 -11.8063 -8.5322 2.2492 9.3670 26.9501 1.0621 21.0184 -36.1608 1.7843 -8.4016 -23.9407 0.0000 0.0000 0.0000 15.6501 0.5043 -41.6000 -5.6737 -14.1045 43.6575 -0.4494 -1.9687 -13.5330 -4.8223 13.1809 -40.0494 -13.5481 -3.8738 15.4891 3.5758 -7.2349 0.4770 13.0429 -3.1208 -5.9933 -20.0616 -7.9661 -1.3017 15.8735 -10.9849 5.0728 7.6504 -5.4883 3.7293 0.0000 0.0000 0.0000 -67.0731 2.6727 8.3887 104.9557 -59.1377 -72.9145 -0.0000 0.0000 -28.6488 45.1076 38.5309 32.0169 -7.1250 0.0000 -0.0000 23.0344 77.5595 17.6956 0.0000 0.0000 0.0000 54.4094 6.5080 6.7325 -81.1546 59.7023 -52.3473 0.0000 0.0000 3.7804 -56.7773 33.5910 -40.1891 7.1250 -0.0000 -0.0000 -12.6594 19.4774 -16.4741
0.00 0.00 0.00 0.4938 22.2821 -341.9680 0.0000 0.0000 0.0000 5.4104 -4.8378 -3.2618 2.0024 8.8711 25.3928 -0.4944 21.9811 -27.3854 2.2000 -9.2708 -26.6461 0.0000 0.0000 0.0000 13.8187 -0.2261 -38.4234 -6.8276 -15.1850 48.2192 -1.2250 -6.7555 -24.3554 -1.4881 7.7068 -21.8269 -12.8293 -2.8276 10.3379 1.4483 -5.2876 -1.0744 9.5479 -2.1636 -5.6877 -12.8033 -9.4091 2.7193 11.9238 -13.1991 3.3716 5.3179 -6.6684 2.2049 -0.0000 0.0000 0.0000 -60.7636 -1.1466 18.6499 121.2162 -55.9771 -86.6689 -0.0000 0.0000 -25.3971 41.7896 36.2222 27.8407 -7.1250 0.0000 -0.0000 14.9213 74.0261 10.2957 -0.0000 0.0000 0.0000 59.8904 3.8422 9.9673 -105.5022 59.0722 -73.3835 0.0000 0.0000 7.2996 -54.3206 36.3193 -39.5184 7.1250 -0.0000 -0.0000 -10.4134 20.8890 -13.6142
0.00 0.00 0.00 3.7207 21.8033 -344.4090 0.0000 0.0000 0.0000 -2.8414 5.1591 -2.8109 2.7946 10.3549 30.1338 0.0379 12.2052 -17.8533 2.5769 -9.9763 -28.9002 0.0000 0.0000 0.0000 13.4809 -0.6589 -34.1745 -6.4539 -14.8542 46.7773 -0.8153 -7.2181 -21.1572 -1.0687 6.5720 -18.4533 -7.4688 -1.0588 6.0179 -1.0296 -2.0498 -1.6383 3.3194 -0.8029 -4.8767 -3.8677 -12.6610 3.6379 11.8459 -16.8754 -2.4423 4.5252 -8.6015 0.0594 0.0000 -0.0000 0.0000 -59.0065 -6.3086 32.0253 140.9461 -47.4992 -102.2615 -0.0000 0.0000 -22.1398 40.8698 34.7418 26.2488 -7.1250 0.0000 -0.0000 13.3555 72.1169 8.6539 0.0000 -0.0000 0.0000 70.9462 -5.9616 22.1900 -130.6264 52.7397 -94.3253 0.0000 0.0000 11.1887 -57.0394 37.6774 -43.3077 7.1250 -0.0000 -0.0000 -11.1924 24.0215 -14.9834
0.00 0.00 0.00 0.7050 9.6446 -346.6520 0.0000 0.0000 0.0000 -26.1727 12.2253 -9.5726 3.0344 10.7505 31.4431 -0.1240 -6.7308 -0.2501 3.1124 -10.8748 -31.8587 0.0000 0.0000 0.0000 12.1466 7.7121 -42.6379 -5.9081 -14.3387 44.6117 -0.0108 -8.6509 -12.5340 -0.7083 5.3790 -14.9928 1.4042 1.3180 5.7496 0.3642 1.8616 -0.0193 -0.5687 0.9062 -3.2103 7.4210 -14.6753 -4.5125 7.5355 -19.7439 -3.4876 0.9710 -9.9449 -0.2859 -0.0000 0.0000 0.0000 -60.1514 -8.0791 63.5559 149.7301 -41.1236 -108.4133 -0.0000 0.0000 -18.2759 35.1296 30.9621 19.8989 -7.1250 0.0000 -0.0000 5.0792 66.1765 2.5977 -0.0000 0.0000 0.0000 83.6368 -14.1146 30.9914 -140.3116 47.8842 -101.7922 0.0000 0.0000 11.3068 -60.5458 41.1743 -49.3778 7.1250 -0.0000 -0.0000 -11.2771 29.8050 -15.5752
0.00 0.00 0.00 0.2116 6.7591 -346.3870 0.0000 0.0000 0.0000 -29.1261 12.8490 -8.2062 2.2132 9.2968 26.7281 0.2142 -2.0945 -8.2661 3.5018 -11.4662 -33.8688 0.0000 0.0000 0.0000 3.7422 19.4372 -45.5575 -3.9610 -12.1083 36.1161 -1.6484 -13.8150 -32.6130 -0.2229 3.0392 -8.3880 0.8277 1.5032 5.4737 1.7657 2.1062 0.2485 1.1878 1.0487 -2.8489 10.4364 -14.2029 -6.1113 5.7422 -19.3820 -3.9997 0.0293 -9.8044 -0.6683 0.0000 0.0000 0.0000 -60.2752 -13.7786 70.3322 151.7127 -39.3794 -109.6946 -0.0000 0.0000 -17.0005 35.7025 29.2501 19.3484 -7.1250 0.0000 -0.0000 6.4136 64.4629 3.0281 0.0000 0.0000 0.0000 85.5439 -14.0916 27.6629 -145.1432 44.7096 -105.2875 0.0000 0.0000 11.2318 -61.8610 40.8687 -50.7386 7.1250 -0.0000 -0.0000 -12.0317 30.4353 -16.6895
0.00 0.00 0.00 3.0059 6.6336 -346.4370 0.0000 0.0000 0.0000 -31.2235 12.3092 -3.9654 1.8107 8.4602 24.1207 1.0961 1.5998 -20.4167 3.8633 -11.9762 -35.6478 0.0000 0.0000 0.0000 -10.5908 29.1989 -47.4323 -3.2023 -11.0156 32.3324 -5.0362 -18.2445 -50.7576 -0.0097 -0.6355 1.7463 -3.6419 0.9677 4.9244 1.7096 1.1355 0.9376 3.7360 0.5923 -1.9009 11.7975 -14.1621 -6.5446 6.3664 -19.3415 -5.3284 0.0777 -9.8752 -1.0922 0.0000 0.0000 0.0000 -62.0879 -18.2944 72.4037 151.9879 -39.1274 -109.8687 -0.0000 0.0000 -14.9540 33.6631 28.9599 17.8729 -7.1250 0.0000 -0.0000 3.7553 63.5613 1.6917 0.0000 0.0000 0.0000 88.4747 -12.5597 24.1909 -147.2657 43.1248 -106.7599 0.0000 0.0000 12.7711 -62.2901 40.7115 -51.1568 7.1250 -0.0000 -0.0000 -12.3073 30.5949 -17.0935
0.00 0.00 0.00 5.3008 7.3524 -347.8330 0.0000 0.0000 0.0000 -26.5882 12.9749 -0.7576 2.6057 10.0276 29.0661 0.8409 0.5915 -17.5528 4.7391 -13.0838 -39.6831 0.0000 0.0000 0.0000 -11.7198 29.5664 -38.5803 -2.7786 -10.3278 30.0448 -11.9860 -8.1728 -68.6387 -1.4547 -7.6236 21.5766 -4.4916 0.3986 2.6210 1.0394 0.4233 0.7724 3.5773 0.2145 -0.7160 12.2759 -14.1679 -8.6281 4.2717 -19.9741 -1.2935 -0.9644 -9.9255 0.2374 0.0000 0.0000 0.0000 -69.2391 -8.1539 82.4423 146.1086 -44.0041 -105.9624 -0.0000 0.0000 -7.8020 32.4848 25.3514 15.2490 -7.1250 0.0000 -0.0000 3.3029 59.2710 1.1522 0.0000 0.0000 0.0000 95.8116 -19.2911 21.3453 -145.5813 44.3926 -105.5948 0.0000 0.0000 13.2347 -61.3093 40.2920 -49.7595 7.1250 -0.0000 -0.0000 -12.0536 29.5052 -16.6543
